<?xml version="1.0" encoding="UTF-8"?>
<svg version="1.1" xmlns="http://www.w3.org/2000/svg" width="512" height="512">
<path d="M0 0 C0.85207031 0.65226562 1.70414062 1.30453125 2.58203125 1.9765625 C5.08975673 3.94547136 7.55065726 5.95888105 10 8 C10.804375 8.66902344 10.804375 8.66902344 11.625 9.3515625 C22.2518504 18.22308493 32.13241685 27.37169394 40.7890625 38.23046875 C42.23776804 40.04519001 43.71113988 41.84055226 45.2109375 43.61328125 C55.43494561 55.72065927 63.53306034 69.06560525 71 83 C71.50611816 83.9283667 71.50611816 83.9283667 72.02246094 84.87548828 C82.40550653 104.03600608 89.27309486 124.77691574 94 146 C94.16725586 146.74813965 94.33451172 147.4962793 94.50683594 148.26708984 C107.50244914 208.92725855 94.1292465 275.78634006 60.8125 327.79296875 C56.20434054 334.78104249 51.22417216 341.4625076 46 348 C45.5354541 348.58168945 45.0709082 349.16337891 44.59228516 349.76269531 C32.13271066 365.1779602 18.02310151 379.3183403 2 391 C0.87326729 391.84447783 -0.25303203 392.68953421 -1.37890625 393.53515625 C-39.98010591 422.18116446 -87.93793628 438.76350395 -136 440 C-136.6506543 440.02046387 -137.30130859 440.04092773 -137.97167969 440.06201172 C-195.66970444 441.69854735 -251.79274362 422.65726823 -297 387 C-297.82830322 386.3495874 -297.82830322 386.3495874 -298.67333984 385.68603516 C-312.78960933 374.48588405 -326.21159803 361.44875264 -337 347 C-337.70769531 346.07429199 -337.70769531 346.07429199 -338.4296875 345.12988281 C-377.99589249 293.23614754 -395.29456736 227.86350823 -386.80249023 163.16064453 C-380.61926461 119.33275823 -363.51610502 78.68243865 -336 44 C-335.57315918 43.45601563 -335.14631836 42.91203125 -334.70654297 42.3515625 C-322.4153809 26.80756831 -308.02910041 12.64378049 -292 1 C-290.87437205 0.15708791 -289.74937792 -0.68667119 -288.625 -1.53125 C-208.85769129 -60.74725553 -97.41581203 -62.7072037 0 0 Z M-214 23 C-215.13888672 23.92232422 -215.13888672 23.92232422 -216.30078125 24.86328125 C-229.92639441 36.22972539 -239.46077957 52.94208742 -244 70 C-244.22429687 70.79664063 -244.44859375 71.59328125 -244.6796875 72.4140625 C-250.42503035 97.20561041 -244.14261431 124.51315453 -231.75390625 146.25 C-216.34450967 170.41083561 -193.37103222 187.13474409 -165.3828125 193.61328125 C-158.17485529 195.10368808 -151.08863555 195.59956256 -143.75 195.9375 C-127.5187883 196.88563322 -112.97095803 199.3808508 -98 206 C-96.52853516 206.62648438 -96.52853516 206.62648438 -95.02734375 207.265625 C-86.34867136 211.24477914 -79.21575449 216.84249218 -72 223 C-71.31035156 223.58523438 -70.62070312 224.17046875 -69.91015625 224.7734375 C-52.37054327 241.03369047 -42.06965841 266.83437348 -40.87719727 290.42993164 C-39.98311288 319.38576494 -47.26413902 346.74449527 -67.42675781 368.54248047 C-70.53766872 371.77901253 -73.75465189 374.89829844 -77 378 C-78.00322405 378.99676552 -79.00495449 379.99506993 -80 381 C-51.99574909 372.49870955 -27.96704467 355.96704467 -7.41796875 335.41796875 C-5.96856049 333.96856049 -4.50122447 332.53629462 -3 331.140625 C32.39241019 297.68373724 50.4667548 246.04595315 52.12890625 198.296875 C52.92538059 145.83576533 32.31295978 96.59882946 -4 59 C-4.91960193 58.0172368 -5.83886937 57.0341605 -6.7578125 56.05078125 C-39.19623975 21.89594635 -88.16157659 0.77603814 -135.02514648 -1.12255859 C-164.73466993 -1.8851115 -190.85647044 2.95778093 -214 23 Z M-172.74609375 273.87890625 C-179.39302579 282.08397199 -182.32059383 291.47383608 -182 302 C-180.53093117 313.13102154 -175.83986849 322.43915408 -167.07421875 329.53515625 C-157.87410762 336.03240988 -148.1763579 338.04451943 -137 337 C-125.52292475 334.342151 -117.20491956 328.49351592 -110.6640625 318.7734375 C-105.00180926 309.33634877 -104.49518477 298.57139739 -106.62109375 287.875 C-109.82555975 277.84858195 -116.26047819 270.14454969 -125.5078125 265.18359375 C-142.24221567 257.23606372 -159.9933366 260.15614072 -172.74609375 273.87890625 Z " fill="#4458DA" transform="translate(401,60)"/>
<path d="M0 0 C9.94016879 7.15271405 15.61583859 14.8738329 17.75 27.125 C19.07420748 38.86460862 16.79571629 49.31732694 9.40625 58.66015625 C2.103449 66.58475371 -7.05030571 71.67485327 -17.8515625 72.48828125 C-29.84873753 72.74555701 -39.14451475 70.13868673 -48.1875 62 C-56.43204134 52.93100453 -61.15822751 44.15972226 -60.89453125 31.57421875 C-59.95204577 20.99348553 -56.19430081 11.65631175 -48.546875 4.1484375 C-34.57546883 -7.33156407 -15.65221674 -9.85509943 0 0 Z " fill="#3C70DC" transform="translate(278.6875,119.75)"/>
</svg>
